<?xml version="1.0" encoding="UTF-8"?>
<svg width="18px" height="20px" viewBox="0 0 18 20" version="1.1" xmlns="http://www.w3.org/2000/svg" xmlns:xlink="http://www.w3.org/1999/xlink">
  <!-- Generator: Sketch 52.2 (67145) - http://www.bohemiancoding.com/sketch -->
  <title>分组</title>
  <desc>Created with Sketch.</desc>
  <defs>
    <polygon id="path-1" points="0 0.0003 17.306 0.0003 17.306 19.4893 0 19.4893"></polygon>
  </defs>
  <g id="Symbols" stroke="none" stroke-width="1" fill="none" fill-rule="evenodd">
    <g id="左侧导航" transform="translate(-11.000000, -70.000000)">
      <g id="分组" transform="translate(11.000000, 70.000000)">
        <mask id="mask-2" fill="white">
          <use xlink:href="#path-1"></use>
        </mask>
        <g id="Clip-2"></g>
        <path d="M5.8831,19.4893 C4.5291,19.4893 3.0911,19.0213 1.7931,17.7573 C-0.5649,15.4603 -0.6009,12.0953 1.7061,9.5733 C3.9151,7.1573 7.7541,3.1173 9.6041,1.2603 C11.6691,-0.8117 14.5361,0.0263 15.8231,1.2453 C16.4641,1.8513 16.8931,2.9743 16.9171,4.1073 C16.9411,5.2373 16.5611,6.2653 15.8461,7.0033 C14.9161,7.9623 13.1591,9.8403 10.6241,12.5853 C9.3591,13.8353 7.2691,13.7103 6.2541,12.5453 C5.3351,11.4923 5.5131,9.7253 6.6581,8.5223 C7.2431,7.9073 8.9501,6.1683 11.7791,3.3033 L12.8471,4.3573 C10.0281,7.2113 8.3271,8.9453 7.7441,9.5563 C7.0961,10.2373 7.0341,11.1583 7.3841,11.5593 C7.7131,11.9363 8.1971,11.9923 8.4561,11.9923 C8.8651,11.9923 9.2521,11.8323 9.5471,11.5423 C12.0661,8.8133 13.8311,6.9263 14.7691,5.9593 C15.3251,5.3853 15.4281,4.6533 15.4171,4.1403 C15.4001,3.3263 15.0901,2.6163 14.7921,2.3343 C14.3691,1.9343 12.3061,0.6743 10.6661,2.3193 C8.8281,4.1643 5.0111,8.1813 2.8121,10.5863 C1.0841,12.4763 1.0951,14.9833 2.8401,16.6833 C5.3951,19.1723 8.4171,17.4643 9.2741,16.6703 C10.1901,15.8223 12.5271,13.4313 16.2211,9.5613 L17.3061,10.5973 C13.5381,14.5443 11.2441,16.8903 10.2941,17.7703 C9.3331,18.6593 7.6841,19.4893 5.8831,19.4893" id="Fill-1" fill="#999999" mask="url(#mask-2)"></path>
      </g>
    </g>
  </g>
</svg>
