<?xml version="1.0" encoding="UTF-8"?>
<svg width="75px" height="60px" viewBox="0 0 75 60" version="1.1" xmlns="http://www.w3.org/2000/svg" xmlns:xlink="http://www.w3.org/1999/xlink">
    <!-- Generator: Sketch 52.2 (67145) - http://www.bohemiancoding.com/sketch -->
    <title>暂无数据 copy@2x</title>
    <desc>Created with Sketch.</desc>
    <g id="Page-1" stroke="none" stroke-width="1" fill="none" fill-rule="evenodd">
        <g id="附件为空" transform="translate(-113.000000, -304.000000)">
            <g id="分组-7" transform="translate(80.000000, 304.000000)">
                <g id="暂无数据-copy" transform="translate(33.000000, 0.000000)">
                    <path d="M22.6059655,59.15276 C22.6056075,59.4345476 25.8559314,59.6949372 31.1324877,59.8358358 C36.4090441,59.9767344 42.910133,59.9767344 48.1866893,59.8358358 C53.4632457,59.6949372 56.7135696,59.4345476 56.7132116,59.15276 C56.7135696,58.8709723 53.4632457,58.6105827 48.1866893,58.4696841 C42.910133,58.3287855 36.4090441,58.3287855 31.1324877,58.4696841 C25.8559314,58.6105827 22.6056075,58.8709723 22.6059655,59.15276 Z" id="路径" fill="#EFEFEF"></path>
                    <path d="M21.4161778,3.15481387 L57.9029992,3.15481387 C58.9605882,3.15481387 59.4893828,3.68061618 59.4893828,4.73222078 L59.4893828,47.322208 C59.4893828,48.3738126 58.9605883,48.8996149 57.9029992,48.8996149 L21.4161778,48.8996149 C20.3585888,48.8996149 19.8297943,48.3738126 19.8297943,47.322208 L19.8297943,4.73222078 C19.8297943,3.68061618 20.3585888,3.15481387 21.4161778,3.15481387 Z" id="路径" fill="#EFEFF3"></path>
                    <path d="M23.0025613,5.52092423 L55.9200198,5.52092423 C56.7132116,5.52092423 57.1098075,5.91527598 57.1098075,6.70397947 L57.1098075,45.3504493 C57.1098075,46.1391527 56.7132116,46.5335045 55.9200198,46.5335045 L23.0025613,46.5335045 C22.2093696,46.5335045 21.8127737,46.1391527 21.8127737,45.3504493 L21.8127737,6.70397947 C21.8127737,5.91527602 22.2093696,5.52092427 23.0025613,5.52092423 Z" id="路径" fill="#FCFCFC"></path>
                    <path d="M35.8760638,2.1030778 C36.4261423,0.877826985 37.912187,0 39.6595886,0 C41.4065934,0 42.8926382,0.877826985 43.4431133,2.1030778 L50.8634223,2.1030778 C51.0276977,2.1030778 51.1608692,2.23549577 51.1608692,2.39884162 L51.1608692,6.80256738 C51.1606504,6.9657592 51.0275429,7.09793698 50.8634223,7.09793684 L28.4557548,7.09793684 C28.2914794,7.09793684 28.1583078,6.96551886 28.1583078,6.80217301 L28.1583078,2.39884162 C28.1585267,2.2356498 28.2916341,2.10347201 28.4557548,2.10347216 L35.8760638,2.10347216 L35.8760638,2.1030778 Z" id="路径" fill="#DFE0E7"></path>
                    <path d="M27.563414,15.3797176 L36.2885235,15.3797176 C36.9495167,15.3797176 37.2800132,15.708344 37.2800132,16.3655969 C37.2800132,17.0228498 36.9495167,17.3514762 36.2885235,17.3514763 L27.563414,17.3514763 C26.9024209,17.3514763 26.5719243,17.0228498 26.5719243,16.3655969 C26.5719243,15.708344 26.9024209,15.3797176 27.563414,15.3797176 Z" id="路径" fill="#DFE0E7"></path>
                    <path d="M27.1668181,20.5062901 L45.8068247,20.5062901 C46.1610499,20.5062901 46.4883675,20.6941976 46.6654801,20.9992297 C46.8425927,21.3042619 46.8425927,21.680077 46.6654801,21.9851091 C46.4883675,22.2901413 46.1610499,22.4780488 45.8068247,22.4780488 L27.1668181,22.4780488 C26.6192335,22.4780488 26.1753284,22.0366556 26.1753284,21.4921694 C26.1753284,20.9476833 26.6192335,20.5062901 27.1668181,20.5062901 Z" id="路径" fill="#DFE0E7"></path>
                    <path d="M26.9685202,26.0272144 L37.6766091,26.0272144 C38.2054036,26.0272144 38.4698009,26.2901155 38.4698009,26.8159178 C38.4698009,27.3417201 38.2054036,27.6046213 37.6766091,27.6046213 L26.9685202,27.6046213 C26.4397257,27.6046213 26.1753284,27.3417201 26.1753284,26.8159178 C26.1753284,26.2901155 26.4397257,26.0272144 26.9685202,26.0272144 Z" id="路径" fill="#DFE0E7"></path>
                    <path d="M27.563414,31.1537869 L51.755763,31.1537869 C52.1099882,31.1537869 52.4373058,31.3416944 52.6144184,31.6467265 C52.791531,31.9517587 52.791531,32.3275738 52.6144184,32.6326059 C52.4373058,32.9376381 52.1099882,33.1255456 51.755763,33.1255456 L27.563414,33.1255456 C27.2091888,33.1255456 26.8818713,32.9376381 26.7047587,32.6326059 C26.5276461,32.3275738 26.5276461,31.9517587 26.7047587,31.6467265 C26.8818713,31.3416944 27.2091888,31.1537869 27.563414,31.1537869 Z M27.563414,36.6747112 L51.755763,36.6747112 C52.3033477,36.6747112 52.7472527,37.1161044 52.7472527,37.6605905 C52.7472527,38.2050766 52.3033477,38.6464698 51.755763,38.6464698 L27.563414,38.6464698 C27.0158294,38.6464698 26.5719243,38.2050766 26.5719243,37.6605905 C26.5719243,37.1161044 27.0158294,36.6747112 27.563414,36.6747112 Z" id="形状" fill="#DFE0E7" fill-rule="nonzero"></path>
                    <path d="M1.38597382e-10,19.7175866 C-0.000144444821,20.7039005 0.528959202,21.6153536 1.38796888,22.108552 C2.24697855,22.6017504 3.30536382,22.6017504 4.16437349,22.108552 C5.02338317,21.6153536 5.55248681,20.7039005 5.55234237,19.7175866 C5.55248681,18.7312728 5.02338317,17.8198197 4.16437349,17.3266213 C3.30536382,16.8334229 2.24697855,16.8334229 1.38796888,17.3266213 C0.528959202,17.8198197 -0.000144444821,18.7312728 1.38597382e-10,19.7175866 Z" id="路径" fill="#DFE0E7"></path>
                    <path d="M9.91489715,38.6464698 C9.91477507,39.3509923 10.2927021,40.0020498 10.9062882,40.354346 C11.5198743,40.7066423 12.2758788,40.7066423 12.8894649,40.354346 C13.503051,40.0020498 13.8809781,39.3509923 13.880856,38.6464698 C13.8809781,37.9419474 13.503051,37.2908899 12.8894649,36.9385936 C12.2758788,36.5862973 11.5198743,36.5862973 10.9062882,36.9385936 C10.2927021,37.2908899 9.91477507,37.9419474 9.91489715,38.6464698 Z" id="路径" fill="#DFE0E7"></path>
                    <path d="M66.6281088,17.9430039 C66.6281088,20.2298456 68.49251,22.0836971 70.7923655,22.0836971 C73.0922211,22.0836971 74.9566223,20.2298456 74.9566223,17.9430039 C74.9566223,15.6561622 73.0922211,13.8023107 70.7923655,13.8023107 C68.49251,13.8023107 66.6281088,15.6561622 66.6281088,17.9430039 Z" id="路径" fill="#DFE0E7" opacity="0.6"></path>
                </g>
            </g>
        </g>
    </g>
</svg>