<?xml version="1.0" encoding="UTF-8"?>
<svg width="18px" height="21px" viewBox="0 0 18 21" version="1.1" xmlns="http://www.w3.org/2000/svg" xmlns:xlink="http://www.w3.org/1999/xlink">
  <!-- Generator: Sketch 52.2 (67145) - http://www.bohemiancoding.com/sketch -->
  <title>分组</title>
  <desc>Created with Sketch.</desc>
  <g id="Symbols" stroke="none" stroke-width="1" fill="none" fill-rule="evenodd">
    <g id="左侧导航" transform="translate(-11.000000, -25.000000)" fill="#353535">
      <g id="分组" transform="translate(11.000000, 25.000000)">
        <polygon id="Fill-1" points="0 5.7501 0 20.2501 12.5 20.2501 12.5 16.5001 11 16.5001 11 18.7501 1.5 18.7501 1.5 7.2501 3.75 7.2501 3.75 5.7501"></polygon>
        <path d="M4.7502,0.5004 L4.7502,15.4994 L17.7502,15.4994 L17.7502,6.9394 L12.4162,0.5004 L4.7502,0.5004 Z M6.2492,1.9994 L11.7122,1.9994 L16.2502,7.4804 L16.2502,14.0004 L6.2492,14.0004 L6.2492,1.9994 Z" id="Fill-2"></path>
        <polygon id="Fill-3" points="17.2065 8.4443 10.9645 8.4443 10.9645 1.5433 12.4645 1.5433 12.4645 6.9443 17.2065 6.9443"></polygon>
      </g>
    </g>
  </g>
</svg>


